# xmcd
#
# Track frame offsets: 
#        150
#        15540
#        30650
#        44827
#        59312
#        73430
#        87227
#        100215
#        114227
#        129232
#        143555
#        156527
#        170955
#        184747
#        197815
#        210777
#        224370
#        239457
#        254510
#        269230
#        283882
#        298882
#        314007
#        328315
#
# Disc length: 4594 seconds
#
# Revision: 0
# Processed by: cddbd v1.5.2PL0 Copyright (c) Steve Scherf et al.
# Submitted via: ExactAudioCopyFreeDBPlugin 1.0
#
DISCID=8d11f018
DTITLE=Birmingham Jubilee Singers - Complete Recordings Vol. 2: 1927-1
DTITLE=930
DYEAR=1995
DGENRE=Gospel
TTITLE0=Louisiana Bo-Bo
TTITLE1=Goodbye, My Alabama Babe
TTITLE2=The Steamboat
TTITLE3=Bohunkus and Josephus
TTITLE4=Queen Street Rag
TTITLE5=Stop That Band!
TTITLE6=Raise a Ruckus To-Night
TTITLE7=Watermelon on the Vine
TTITLE8=Rollin' Down to Jordan
TTITLE9=What You Gonna Do When the World's on Fire
TTITLE10=Goodbye, My Alabama Babe
TTITLE11=Queen Street Rag
TTITLE12=Toot Toot Dixie Bound
TTITLE13=Eliza
TTITLE14=Hope I'll Join That Band
TTITLE15=Ain't That Good News
TTITLE16=They Crucified My Lord
TTITLE17=Run Mary
TTITLE18=Wade in the Water
TTITLE19=Gamblin' Man
TTITLE20=Great Gittin' Up Mawnin'
TTITLE21=Way Down in Egyptland
TTITLE22=Dixie Bo-Bo
TTITLE23=My Lovie Pie (Plantation Melody)
EXTD=
EXTT0=
EXTT1=
EXTT2=
EXTT3=
EXTT4=
EXTT5=
EXTT6=
EXTT7=
EXTT8=
EXTT9=
EXTT10=
EXTT11=
EXTT12=
EXTT13=
EXTT14=
EXTT15=
EXTT16=
EXTT17=
EXTT18=
EXTT19=
EXTT20=
EXTT21=
EXTT22=
EXTT23=
PLAYORDER=
